<?xml version="1.0" encoding="UTF-8" standalone="no"?>
<svg
   xmlns:dc="http://purl.org/dc/elements/1.1/"
   xmlns:cc="http://creativecommons.org/ns#"
   xmlns:rdf="http://www.w3.org/1999/02/22-rdf-syntax-ns#"
   xmlns:svg="http://www.w3.org/2000/svg"
   xmlns="http://www.w3.org/2000/svg"
   xmlns:sodipodi="http://sodipodi.sourceforge.net/DTD/sodipodi-0.dtd"
   xmlns:inkscape="http://www.inkscape.org/namespaces/inkscape"
   version="1.1"
   x="0px"
   y="0px"
   viewBox="0 0 100 125"
   style="enable-background:new 0 0 100 100;"
   xml:space="preserve"
   id="svg2"
   inkscape:version="0.48.4 r9939"
   width="100%"
   height="100%"
   sodipodi:docname="noun_Medicine_1745537.svg"><metadata
     id="metadata20"><rdf:RDF><cc:Work
         rdf:about=""><dc:format>image/svg+xml</dc:format><dc:type
           rdf:resource="http://purl.org/dc/dcmitype/StillImage" /></cc:Work></rdf:RDF></metadata><defs
     id="defs18" /><sodipodi:namedview
     pagecolor="#ffffff"
     bordercolor="#666666"
     borderopacity="1"
     objecttolerance="10"
     gridtolerance="10"
     guidetolerance="10"
     inkscape:pageopacity="0"
     inkscape:pageshadow="2"
     inkscape:window-width="640"
     inkscape:window-height="480"
     id="namedview16"
     showgrid="false"
     inkscape:zoom="1.888"
     inkscape:cx="50"
     inkscape:cy="62.5"
     inkscape:window-x="75"
     inkscape:window-y="34"
     inkscape:window-maximized="0"
     inkscape:current-layer="svg2" /><g
     id="g4"><path
       d="M38.9,76.2c-6.1,5.7-15.7,5.5-21.6-0.4l0,0c-6.1-6.1-6.1-16,0-22.1l19.5-19.5l12.4,12.4c2.5-1.9,5.4-3.5,8.5-4.6   c7.4-2.5,15-1.8,21.5,1.4l2.9-2.9c8.1-8.1,8.1-21.3,0-29.5C73.9,3,60.7,3,52.6,11.1L13.6,50c-8.1,8.1-8.1,21.3,0,29.5   c7.4,7.4,19,8,27.2,2c-0.5-1-0.9-2-1.2-3.1C39.3,77.7,39.1,76.9,38.9,76.2z"
       id="path6" /><path
       d="M66.5,58.9c-0.5-1.6-2.1-2.6-3.7-2.1c-1.7,0.5-2.6,2.2-2.1,3.9l6.4,19.3c0.5,1.6,2.2,2.4,3.8,1.9c1.6-0.5,2.4-2.2,1.9-3.8   L66.5,58.9z"
       id="path8" /><path
       d="M91.1,61.2c-4.5-13.4-19.1-20.7-32.5-16.2l0,0C45.2,49.4,37.9,64,42.4,77.4c2.2,6.5,6.8,11.8,12.9,14.8   c3.6,1.8,7.5,2.7,11.5,2.7c2.7,0,5.5-0.4,8.2-1.3c6.5-2.2,11.8-6.8,14.8-12.9C92.8,74.6,93.3,67.7,91.1,61.2z M84.4,78.1   C82,82.8,78,86.3,73,87.9c-5,1.7-10.3,1.3-15-1.1c-4.7-2.3-8.2-6.4-9.9-11.4c-3.4-10.3,2.1-21.4,12.4-24.9   c10.3-3.4,21.4,2.1,24.9,12.4C87.1,68,86.7,73.4,84.4,78.1z"
       id="path10" /></g></svg>