<?xml version="1.0" encoding="UTF-8" standalone="no"?>
<svg
   xmlns:dc="http://purl.org/dc/elements/1.1/"
   xmlns:cc="http://creativecommons.org/ns#"
   xmlns:rdf="http://www.w3.org/1999/02/22-rdf-syntax-ns#"
   xmlns:svg="http://www.w3.org/2000/svg"
   xmlns="http://www.w3.org/2000/svg"
   xmlns:sodipodi="http://sodipodi.sourceforge.net/DTD/sodipodi-0.dtd"
   xmlns:inkscape="http://www.inkscape.org/namespaces/inkscape"
   version="1.1"
   x="0px"
   y="0px"
   viewBox="0 0 90 112.5"
   style="enable-background:new 0 0 90 90;"
   xml:space="preserve"
   id="svg2"
   inkscape:version="0.48.4 r9939"
   width="100%"
   height="100%"
   sodipodi:docname="noun_people_165313.svg"><metadata
     id="metadata26"><rdf:RDF><cc:Work
         rdf:about=""><dc:format>image/svg+xml</dc:format><dc:type
           rdf:resource="http://purl.org/dc/dcmitype/StillImage" /></cc:Work></rdf:RDF></metadata><defs
     id="defs24" /><sodipodi:namedview
     pagecolor="#ffffff"
     bordercolor="#666666"
     borderopacity="1"
     objecttolerance="10"
     gridtolerance="10"
     guidetolerance="10"
     inkscape:pageopacity="0"
     inkscape:pageshadow="2"
     inkscape:window-width="1855"
     inkscape:window-height="1056"
     id="namedview22"
     showgrid="false"
     inkscape:zoom="2.0977778"
     inkscape:cx="45"
     inkscape:cy="56.25"
     inkscape:window-x="65"
     inkscape:window-y="24"
     inkscape:window-maximized="1"
     inkscape:current-layer="svg2" /><g
     id="g4"><path
       d="M70.8,24.2h-8.4c0.8,1.7,1.3,3.6,1.3,5.7v18.8c0,4.2-2,8.1-5.2,10.5v17.1c0.3,3,2.9,5.3,6,5.3h3.3c3.3,0,6-2.7,6-6V55.1   c2.7-1.1,4.6-3.8,4.6-6.9V31.7C78.3,27.6,75,24.2,70.8,24.2z"
       id="path6" /><circle
       cx="66"
       cy="15"
       r="7"
       id="circle8" /><path
       d="M26.3,48.6V29.9c0-2,0.5-3.9,1.3-5.7h-8.5c-4.1,0-7.5,3.4-7.5,7.5v16.5c0,3.1,1.9,5.7,4.6,6.9v20.5c0,3.3,2.7,6,6,6h3.3   c3.3,0,6-2.7,6-6V59.1C28.3,56.6,26.3,52.8,26.3,48.6z"
       id="path10" /><circle
       cx="23.7"
       cy="15"
       r="7"
       id="circle12" /><path
       d="M58.9,29.9c0-4.7-3.8-8.5-8.5-8.5H39.6c-4.7,0-8.5,3.8-8.5,8.5v18.8c0,3.5,2.1,6.6,5.2,7.9v23.3c0,3.8,3.1,6.9,6.9,6.9h3.7   c3.8,0,6.9-3.1,6.9-6.9V56.5c3-1.3,5.2-4.3,5.2-7.9V29.9z"
       id="path14" /><circle
       cx="44.9"
       cy="10.9"
       r="7.9"
       id="circle16" /></g></svg>